<svg width="1080" height="1185" viewBox="0 0 1080 1185" fill="none" xmlns="http://www.w3.org/2000/svg">
<g filter="url(#filter0_df_1042_287)">
<path d="M66.7516 405.402C1.16455 357.55 29.5164 300.86 50.0641 244.619C58.2738 251.929 59.5742 262.784 59.7982 273.009C59.7146 285.717 63.3128 298.18 70.1621 308.888C83.5512 327.647 85.9453 352.115 76.4416 373.112C72.6682 383.705 69.4345 394.483 66.7516 405.402ZM306.223 507.704C361.942 462.855 350.726 407.422 327.937 344.857C281.1 392.307 306.223 450.566 306.223 507.704ZM-184.652 345.709C-172.091 317.903 -175.456 292.563 -193.624 268.971C-199.162 262.839 -205.277 257.252 -211.883 252.289C-211.883 252.289 -225.745 269.197 -225.745 281.036C-226.182 285.233 -225.565 289.472 -223.95 293.369C-209.64 317.499 -212.197 342.703 -221.035 367.013C-228.302 386.925 -220.586 400.29 -206.948 415.897C-201.762 391.846 -194.296 368.345 -184.652 345.709ZM1304.75 243.901C1303.18 261.08 1304.75 278.884 1295.38 294.537C1288.88 305.135 1288.11 318.275 1293.31 329.563C1297.05 338.534 1300.83 347.623 1304.66 356.832C1307.09 361.534 1309.9 366.033 1313.06 370.287C1317.98 367.258 1322.51 363.61 1326.5 359.432C1328.87 356.501 1330.73 353.216 1332.07 349.701C1348.36 304.448 1335.31 264.488 1308.74 226.097C1303.32 232.599 1305.15 238.43 1304.66 243.857L1304.75 243.901ZM1015.98 364.994C1014.33 369.897 1013.43 375.025 1013.33 380.198C1012.66 393.339 1035.36 430.204 1035.36 430.204C1035.36 430.204 1063.26 399.213 1062.95 385.356C1062.36 362.931 1064.11 340.058 1057.52 318.351C1051.83 299.153 1039.63 282.535 1023.02 271.349C1035.9 307.048 1026.97 335.978 1015.89 364.769L1015.98 364.994ZM832.449 354.678C840.614 338.578 859.366 315.167 850.394 297.901C841.421 280.632 835.455 263.904 840.21 244.081C843.074 234.624 842.14 224.426 837.608 215.647C811.319 283.458 787.364 311.67 832.449 354.678ZM1409.81 1097.6C1409.81 1097.6 1410.22 752.624 1405.6 702.932C1400.98 653.238 1410.08 612.291 1424.62 598.208C1441.27 582.198 1441.53 562.329 1430.09 545.287C1417.85 526.764 1410.76 508.286 1414.26 485.772C1405.28 486.625 1402.32 493.307 1397.2 496.985C1387.48 504.922 1374.32 507.2 1362.48 502.994C1350.19 498.509 1352.72 485.952 1352.48 476.084C1352.15 468.568 1352.73 461.041 1354.18 453.66C1359.66 430.024 1345.88 414.014 1334.46 396.837C1311.04 421.145 1296.72 446.889 1305.92 481.332C1308.96 494.397 1307.14 508.123 1300.8 519.947C1296.32 528.916 1291.38 537.887 1279.58 537.887C1267.79 537.887 1261.33 528.916 1258 518.647C1255.58 510.493 1253.84 502.153 1252.8 493.711C1252.14 485.161 1247.15 477.544 1239.57 473.529C1220.5 462.945 1211.98 447.561 1217.99 426.347C1228.17 390.468 1199.42 368.043 1191.79 338.04C1186.81 356.248 1185.46 376.071 1173.85 389.795C1153.43 413.61 1154.69 438.815 1160.39 466.577C1164.87 487.117 1163.21 507.434 1150.83 526.226C1143.12 537.931 1136.25 537.617 1126.92 529.5C1121.49 525.015 1120.64 518.063 1118.8 511.829C1113.91 495.235 1105.03 481.064 1092.6 462.495C1089.73 489.405 1080.62 508.466 1073.4 528.29C1069.03 538.992 1070.08 551.146 1076.23 560.939C1089.24 581.3 1087.31 601.976 1077.89 622.966C1075.01 629.29 1071.61 634.939 1064.43 635.837C1056.13 636.869 1053.93 629.648 1050.07 624.4C1041.55 612.739 1043.7 596.55 1033.56 585.785C1016.65 567.847 1011.4 550.624 1025.85 526.584C1045.32 494.249 1029.84 469.493 992.2 467.697C984.573 467.811 977.572 463.489 974.257 456.62C969.56 448.768 964.437 441.177 958.914 433.882C952.364 453.66 954.069 484.338 959.542 504.564C965.015 524.79 965.643 543.493 957.837 562.867C954.203 571.838 948.596 579.642 937.964 576.322C928.049 573.362 920.826 566.277 922.172 554.256C922.474 548.138 923.329 542.057 924.729 536.093C929.216 521.517 923.025 514.207 909.522 509.722C897.677 505.82 884.489 506.224 873.049 496.985C871.208 510.798 869.73 522.728 867.98 534.658C866.678 543.359 864.077 552.238 854.251 553.988C844.427 555.738 837.922 548.068 833.257 540.219C828.049 532.248 826.777 522.336 829.802 513.309C833.279 504.555 835.834 495.461 837.428 486.176C839.178 471.915 837.115 457.562 820.112 453.84C804.007 450.342 798.578 441.147 795.887 425.674C790.503 394.863 792.343 361.316 763.901 338.174C746.89 323.805 733.556 305.586 725.005 285.028C722.987 280.543 715.406 272.471 709.753 261.168C707.958 272.695 713.117 295.703 714.463 306.87C719.442 347.233 721.597 387.598 702.081 425.63C694.485 439.437 693.627 455.959 699.748 470.479C707.958 492.365 719.398 513.847 717.692 538.201C716.752 552.238 715.226 568.295 699.748 574.08C683.777 580 671.487 569.147 666.192 560.849C660.899 552.552 655.426 541.655 655.426 541.655C655.426 541.655 654.169 587.399 659.912 603.68C667 623.996 672.293 645.3 665.34 665.751C663.501 671.088 661.707 677.322 654.842 677.592C647.978 677.862 645.512 672.388 642.819 667.187C635.732 653.374 635.598 638.079 632.861 623.324C631.559 616.193 630.213 607.268 622.677 606.148C608.081 605.056 595.495 595.479 590.555 581.705C589.155 595.58 585.74 609.177 580.417 622.068C577.59 628.348 575.932 637.047 567.272 636.689C557.852 636.285 552.603 629.244 549.687 620.544C543.586 602.604 552.468 587.131 560.499 572.51C577.366 541.655 579.161 510.933 562.427 479.852C557.199 469.852 554.693 458.655 555.16 447.381C555.16 431.55 558.794 415.405 551.929 399.931C540.669 374.592 519.361 355.934 507.696 329.652C499.443 339.833 500.653 348.803 503.794 358.804C513.574 389.751 509.805 421.325 504.87 452.36C503.255 462.451 497.288 476.444 482.798 473.439C468.309 470.433 473.556 456.98 473.826 447.293C473.826 431.28 474.14 405.312 464.854 391.409C455.568 377.506 427.349 333.06 427.349 333.06C424.926 349.677 419.141 365.623 410.347 379.928C403.094 392.825 401.472 408.136 405.86 422.267C410.347 438.097 414.204 453.974 412.724 470.883C411.558 484.696 408.955 497.792 396.664 505.148C383.608 512.816 375.22 501.694 366.697 493.263C352.162 517.525 345.612 541.475 355.616 568.967C363.466 590.585 360.416 612.605 350.502 633.46C347.047 640.771 342.156 645.794 333.274 645.749C324.392 645.704 319.816 640.007 316.497 632.832C313.626 627.915 311.666 622.523 310.71 616.911C309.632 588.969 288.861 573.99 270.962 554.572C269.212 567.757 267.821 579.192 266.161 590.451C264.727 600.092 260.374 607.762 249.518 608.389C238.661 609.017 234.086 601.484 230.452 592.649C220.044 567.621 230.452 545.781 240.366 523.67C252.458 498.069 251.268 468.175 237.181 443.615C228.938 429.434 224.49 413.37 224.261 396.971C223.678 365.083 206.047 343.153 178.458 327.68C171.592 344.497 164.999 359.074 168.094 377.506C170.202 390.961 170.562 406.794 162.801 418.813C150.15 438.277 146.337 455.948 154.457 479.448C164.237 507.748 152.751 516.943 123.053 513.175C112.331 511.829 108.024 501.38 96.6753 499.182C98.9179 507.39 100.532 514.117 102.597 520.709C106.362 530.631 104.861 541.783 98.6038 550.354C83.2167 570.985 81.7805 592.469 93.0408 615.387C100.285 628.427 100.285 644.28 93.0408 657.32C89.3179 664.271 86.1773 670.774 76.8914 670.774C66.7974 670.774 62.6248 663.823 60.6063 655.884C56.5677 639.919 51.0063 623.772 50.6023 607.583C49.8842 579.73 37.1436 564.527 9.73245 559.997C7.6698 569.417 12.4248 578.476 14.489 587.893C17.9421 603.77 19.8722 619.692 12.6489 634.94C6.41357 648.08 -7.00085 651.894 -16.2868 644.179C-40.7815 623.772 -48.1831 579.552 -32.392 551.028C-14.0884 517.885 1.16458 483.754 -17.139 445.363C-18.5499 442.343 -19.0344 438.972 -18.5294 435.676C-9.91571 389.616 -33.7823 351.763 -49.6635 311.938C-53.0723 303.462 -57.5148 295.253 -67.6088 291.038C-74.1582 307.856 -84.1622 323.643 -75.1903 340.371C-66.1285 358.088 -68.6409 374.188 -76.4465 390.557C-85.4184 408.856 -86.0907 426.123 -76.1309 444.377C-69.3653 455.505 -68.461 469.234 -73.71 481.154C-76.6438 487.831 -83.3289 492.068 -90.6217 491.871C-97.5309 492.231 -105.606 490.391 -106.997 483.486C-110.316 466.577 -122.025 458.818 -135.304 450.7C-144.735 445.156 -154.608 440.399 -164.823 436.484C-164.823 436.484 -157.87 475.546 -155.223 482.678C-151.365 492.815 -147.327 502.68 -143.334 512.905C-136.829 529.32 -137.144 545.243 -147.82 559.908C-155.851 570.851 -164.823 570.851 -173.437 560.581C-181.803 550.697 -186.172 538.043 -185.684 525.104C-184.024 476.982 -204.077 478.506 -242.568 465.051C-246.112 481.561 -242.152 498.791 -231.757 512.099C-211.165 536.989 -211.883 563.495 -219.958 591.841C-224.444 607.762 -224.982 623.234 -216.145 638.259C-210.738 647.776 -208.998 658.943 -211.255 669.653C-213.184 680.238 -214.844 694.32 -227.36 694.679C-238.71 694.948 -239.428 681.224 -241.85 671.672C-244.991 659.651 -246.336 646.87 -257.687 636.375C-270.203 697.1 -270.473 764.151 -263.07 825.594C-255.668 887.037 -263.07 1097.65 -263.07 1097.65L1409.81 1097.6Z" fill="url(#paint0_linear_1042_287)" fill-opacity="0.5" shape-rendering="crispEdges"/>
</g>
<defs>
<filter id="filter0_df_1042_287" x="-483.648" y="-0.000152588" width="2137.3" height="1313.3" filterUnits="userSpaceOnUse" color-interpolation-filters="sRGB">
<feFlood flood-opacity="0" result="BackgroundImageFix"/>
<feColorMatrix in="SourceAlpha" type="matrix" values="0 0 0 0 0 0 0 0 0 0 0 0 0 0 0 0 0 0 127 0" result="hardAlpha"/>
<feOffset/>
<feGaussianBlur stdDeviation="107.824"/>
<feComposite in2="hardAlpha" operator="out"/>
<feColorMatrix type="matrix" values="0 0 0 0 0.534615 0 0 0 0 0 0 0 0 0 0.525451 0 0 0 1 0"/>
<feBlend mode="normal" in2="BackgroundImageFix" result="effect1_dropShadow_1042_287"/>
<feBlend mode="normal" in="SourceGraphic" in2="effect1_dropShadow_1042_287" result="shape"/>
<feGaussianBlur stdDeviation="9.65852" result="effect2_foregroundBlur_1042_287"/>
</filter>
<linearGradient id="paint0_linear_1042_287" x1="585" y1="1097.65" x2="585" y2="215.647" gradientUnits="userSpaceOnUse">
<stop stop-color="#D90000"/>
<stop offset="1" stop-color="#000357"/>
</linearGradient>
</defs>
</svg>
