<svg width="370" height="474" viewBox="0 0 370 474" fill="none" xmlns="http://www.w3.org/2000/svg">
<g filter="url(#filter0_dd_154_11211)">
<path d="M80.4922 96.7952C80.4922 87.7918 87.7909 80.4932 96.7943 80.4932H272.857C281.86 80.4932 289.159 87.7919 289.159 96.7952V377.191C289.159 386.194 281.86 393.493 272.857 393.493H96.7943C87.7909 393.493 80.4922 386.194 80.4922 377.191V96.7952Z" fill="url(#paint0_linear_154_11211)"/>
</g>
<path fill-rule="evenodd" clip-rule="evenodd" d="M149.085 393.493H104.436L80.4922 320.167V183.429L149.085 393.493Z" fill="white" fill-opacity="0.5"/>
<path fill-rule="evenodd" clip-rule="evenodd" d="M280.749 391.456C278.41 392.753 275.719 393.493 272.855 393.493H195.679L93.5781 80.8105C94.6175 80.6026 95.6925 80.4932 96.793 80.4932H179.21L280.749 391.456Z" fill="white" fill-opacity="0.5"/>
<path d="M272.856 80.4932C281.86 80.4932 289.159 87.7917 289.159 96.7949V234.726L238.797 80.4932H272.856Z" fill="white" fill-opacity="0.5"/>
<path fill-rule="evenodd" clip-rule="evenodd" d="M163.364 207.725L184.45 185.257V185.241L184.457 185.249L184.536 185.165V185.333L205.622 207.801L217.438 197.563L244.691 281.025L238.893 290.979L248.053 310.699L184.45 356.125V355.987L183.125 355.041L123.844 173.49L163.364 207.725Z" fill="white" fill-opacity="0.1"/>
<g filter="url(#filter1_i_154_11211)">
<path d="M134.15 251.595L120.929 175.859L163.359 212.614L184.445 190.146V190.132L184.451 190.14L184.531 190.055V190.224L205.617 212.691L248.048 175.937L234.826 251.672L269.738 242.924L238.888 295.869L248.048 315.59L184.445 361.016V360.877L120.929 315.513L130.089 295.792L99.2383 242.847L134.15 251.595Z" fill="url(#paint1_radial_154_11211)"/>
</g>
<path d="M110.823 142.939C112.081 143.214 113.42 143.677 114.838 144.328C115.822 144.776 116.733 145.001 117.573 145.001C119.078 145.001 120.329 144.27 121.328 142.809L116.249 131.501L110.823 142.939ZM104.811 157.329C104.999 158.168 105.57 158.819 106.525 159.282H98.1907C100.028 158.544 101.555 157.162 102.77 155.137L99.2542 148.951C100.499 145.999 102.474 144.06 105.179 143.134C106.134 142.816 107.162 142.657 108.262 142.657H108.652L109.629 140.53L117.638 123.166L125.647 140.53L129.662 149.211L131.659 153.552C132.99 156.446 134.799 158.356 137.085 159.282H125.972C126.783 158.747 127.188 157.98 127.188 156.982C127.188 156.258 126.971 155.404 126.537 154.42L124.974 150.948L122.391 145.174C121.291 147.533 119.772 148.712 117.833 148.712C117.095 148.712 116.299 148.539 115.446 148.191C114.534 147.83 113.673 147.649 112.863 147.649C109.39 147.649 106.706 150.875 104.811 157.329ZM149.673 160.671C144.696 160.657 140.456 158.892 136.955 155.375C133.424 151.859 131.659 147.605 131.659 142.613C131.659 137.621 133.424 133.36 136.955 129.829C140.413 126.371 144.595 124.613 149.5 124.555H149.782C153.124 124.613 155.563 124.931 157.096 125.51C158.312 125.973 159.173 126.205 159.679 126.205C159.809 126.205 159.99 126.161 160.222 126.075C160.468 125.988 161.133 125.481 162.219 124.555L159.44 134.279C159.44 132.832 159.151 131.681 158.572 130.828C156.127 127.572 153.175 125.944 149.717 125.944H149.5C146.128 126.017 143.256 127.644 140.883 130.828C138.438 134.083 137.215 138.012 137.215 142.613C137.215 147.215 138.431 151.143 140.861 154.399C143.307 157.654 146.259 159.282 149.717 159.282C153.175 159.282 156.127 157.654 158.572 154.399C159.151 153.545 159.44 152.395 159.44 150.948L162.219 160.671C161.133 159.745 160.395 159.203 160.005 159.043C159.932 159.015 159.831 159 159.701 159C159.209 159 158.341 159.232 157.096 159.695C155.563 160.288 153.124 160.613 149.782 160.671H149.673ZM175.371 142.939C176.63 143.214 177.969 143.677 179.387 144.328C180.371 144.776 181.282 145.001 182.122 145.001C183.626 145.001 184.878 144.27 185.876 142.809L180.798 131.501L175.371 142.939ZM169.359 157.329C169.547 158.168 170.119 158.819 171.074 159.282H162.74C164.577 158.544 166.104 157.162 167.319 155.137L163.803 148.951C165.047 145.999 167.023 144.06 169.728 143.134C170.683 142.816 171.711 142.657 172.81 142.657H173.201L174.178 140.53L182.187 123.166L190.196 140.53L194.211 149.211L196.208 153.552C197.539 156.446 199.348 158.356 201.634 159.282H190.521C191.331 158.747 191.737 157.98 191.737 156.982C191.737 156.258 191.52 155.404 191.085 154.42L189.523 150.948L186.94 145.174C185.84 147.533 184.321 148.712 182.382 148.712C181.644 148.712 180.848 148.539 179.994 148.191C179.083 147.83 178.222 147.649 177.412 147.649C173.939 147.649 171.255 150.875 169.359 157.329ZM210.055 152.141V154.42C210.055 156.736 210.981 158.356 212.833 159.282H201.721C203.573 158.356 204.499 156.62 204.499 154.073V131.153C204.499 128.607 203.573 126.87 201.721 125.944H217C220.459 125.944 223.403 127.167 225.834 129.612C228.279 132.043 229.502 134.988 229.502 138.446C229.502 141.904 228.287 144.849 225.856 147.28C225.19 147.945 224.575 148.51 224.011 148.973C224.734 150.55 225.19 152.46 225.378 154.703C225.639 158.002 227.382 159.651 230.609 159.651C231.39 159.651 232.259 159.557 233.214 159.369C230.464 160.932 228.229 161.713 226.507 161.713C224.105 161.713 222.701 160.187 222.296 157.133C221.819 153.444 219.345 151.599 214.873 151.599C213.47 151.599 211.864 151.78 210.055 152.141ZM210.055 149.494L213.723 143.395C214.23 143.337 214.721 143.308 215.199 143.308C217.731 143.308 219.894 144.104 221.689 145.695L222.058 146.064C223.316 143.937 223.946 141.398 223.946 138.446C223.946 135.378 223.266 132.759 221.906 130.589C220.56 128.419 218.925 127.333 217 127.333H210.055V149.494ZM245.954 142.939C247.213 143.214 248.551 143.677 249.969 144.328C250.953 144.776 251.865 145.001 252.704 145.001C254.209 145.001 255.461 144.27 256.459 142.809L251.38 131.501L245.954 142.939ZM239.942 157.329C240.13 158.168 240.702 158.819 241.657 159.282H233.322C235.16 158.544 236.686 157.162 237.902 155.137L234.386 148.951C235.63 145.999 237.605 144.06 240.311 143.134C241.266 142.816 242.293 142.657 243.393 142.657H243.784L244.76 140.53L252.769 123.166L260.778 140.53L264.793 149.211L266.79 153.552C268.121 156.446 269.93 158.356 272.216 159.282H261.104C261.914 158.747 262.319 157.98 262.319 156.982C262.319 156.258 262.102 155.404 261.668 154.42L260.105 150.948L257.523 145.174C256.423 147.533 254.904 148.712 252.965 148.712C252.227 148.712 251.431 148.539 250.577 148.191C249.666 147.83 248.805 147.649 247.994 147.649C244.522 147.649 241.837 150.875 239.942 157.329Z" fill="url(#paint2_radial_154_11211)"/>
<defs>
<filter id="filter0_dd_154_11211" x="-0.000938416" y="3.8147e-05" width="369.654" height="473.986" filterUnits="userSpaceOnUse" color-interpolation-filters="sRGB">
<feFlood flood-opacity="0" result="BackgroundImageFix"/>
<feColorMatrix in="SourceAlpha" type="matrix" values="0 0 0 0 0 0 0 0 0 0 0 0 0 0 0 0 0 0 127 0" result="hardAlpha"/>
<feMorphology radius="18.364" operator="dilate" in="SourceAlpha" result="effect1_dropShadow_154_11211"/>
<feOffset/>
<feGaussianBlur stdDeviation="31.0645"/>
<feComposite in2="hardAlpha" operator="out"/>
<feColorMatrix type="matrix" values="0 0 0 0 1 0 0 0 0 0.870609 0 0 0 0 0.647115 0 0 0 0.4 0"/>
<feBlend mode="normal" in2="BackgroundImageFix" result="effect1_dropShadow_154_11211"/>
<feColorMatrix in="SourceAlpha" type="matrix" values="0 0 0 0 0 0 0 0 0 0 0 0 0 0 0 0 0 0 127 0" result="hardAlpha"/>
<feOffset dx="6.52083" dy="6.52083"/>
<feComposite in2="hardAlpha" operator="out"/>
<feColorMatrix type="matrix" values="0 0 0 0 0.476923 0 0 0 0 0.359871 0 0 0 0 0.00871285 0 0 0 1 0"/>
<feBlend mode="normal" in2="effect1_dropShadow_154_11211" result="effect2_dropShadow_154_11211"/>
<feBlend mode="normal" in="SourceGraphic" in2="effect2_dropShadow_154_11211" result="shape"/>
</filter>
<filter id="filter1_i_154_11211" x="99.2383" y="175.859" width="170.5" height="185.156" filterUnits="userSpaceOnUse" color-interpolation-filters="sRGB">
<feFlood flood-opacity="0" result="BackgroundImageFix"/>
<feBlend mode="normal" in="SourceGraphic" in2="BackgroundImageFix" result="shape"/>
<feColorMatrix in="SourceAlpha" type="matrix" values="0 0 0 0 0 0 0 0 0 0 0 0 0 0 0 0 0 0 127 0" result="hardAlpha"/>
<feOffset dy="11.4115"/>
<feComposite in2="hardAlpha" operator="arithmetic" k2="-1" k3="1"/>
<feColorMatrix type="matrix" values="0 0 0 0 0 0 0 0 0 0 0 0 0 0 0 0 0 0 0.25 0"/>
<feBlend mode="normal" in2="shape" result="effect1_innerShadow_154_11211"/>
</filter>
<linearGradient id="paint0_linear_154_11211" x1="184.825" y1="80.4932" x2="184.825" y2="393.493" gradientUnits="userSpaceOnUse">
<stop offset="0.0693228" stop-color="#FFEF0D"/>
<stop offset="0.557692" stop-color="#CF9311"/>
<stop offset="0.961538" stop-color="#DCCD00"/>
</linearGradient>
<radialGradient id="paint1_radial_154_11211" cx="0" cy="0" r="1" gradientUnits="userSpaceOnUse" gradientTransform="translate(184.488 268.438) rotate(90) scale(92.5781 85.25)">
<stop stop-color="#C30279"/>
<stop offset="1" stop-color="#690068"/>
</radialGradient>
<radialGradient id="paint2_radial_154_11211" cx="0" cy="0" r="1" gradientUnits="userSpaceOnUse" gradientTransform="translate(185.605 140.782) rotate(180) scale(88.5 28.5)">
<stop stop-color="#C30279"/>
<stop offset="1" stop-color="#690068"/>
</radialGradient>
</defs>
</svg>
