<?xml version="1.0" encoding="UTF-8" standalone="no"?>
<!DOCTYPE svg PUBLIC "-//W3C//DTD SVG 1.1//EN" "http://www.w3.org/Graphics/SVG/1.1/DTD/svg11.dtd">
<svg width="100%" height="100%" viewBox="0 0 243 817" version="1.1" xmlns="http://www.w3.org/2000/svg" xmlns:xlink="http://www.w3.org/1999/xlink" xml:space="preserve" xmlns:serif="http://www.serif.com/" style="fill-rule:evenodd;clip-rule:evenodd;">
    <g transform="matrix(1,0,0,1,-49.3496,-80.0001)">
        <path d="M74.968,205.061L49.35,181.811L65.254,131.323L80.195,162.369L80.223,179.642L109.288,211.874L140.723,219.683C136.96,229.477 128.994,248.662 127.236,247.057C125.477,245.452 115.549,242.27 110.805,240.88L83.611,232.791L74.968,205.061Z" style="fill:rgb(48,45,45);fill-rule:nonzero;"/>
        <path d="M74.968,205.061L49.35,181.811L65.254,131.323L80.195,162.369L80.223,179.642L109.288,211.874L140.723,219.683C136.96,229.477 128.994,248.662 127.236,247.057C125.477,245.452 115.549,242.27 110.805,240.88L83.611,232.791L74.968,205.061Z" style="fill:rgb(48,45,45);fill-rule:nonzero;"/>
        <path d="M74.968,205.061L49.35,181.811L65.254,131.323L80.195,162.369L80.223,179.642L109.288,211.874L140.723,219.683C136.96,229.477 128.994,248.662 127.236,247.057C125.477,245.452 115.549,242.27 110.805,240.88L83.611,232.791L74.968,205.061Z" style="fill:rgb(48,45,45);fill-rule:nonzero;"/>
        <path d="M74.968,205.061L49.35,181.811L65.254,131.323L80.195,162.369L80.223,179.642L109.288,211.874L140.723,219.683C136.96,229.477 128.994,248.662 127.236,247.057C125.477,245.452 115.549,242.27 110.805,240.88L83.611,232.791L74.968,205.061Z" style="fill:rgb(48,45,45);fill-rule:nonzero;"/>
        <path d="M66.933,179.765L65.704,131.426L49.374,181.948L66.933,179.765Z" style="fill:rgb(72,71,71);fill-rule:nonzero;"/>
        <path d="M66.933,179.765L65.704,131.426L49.374,181.948L66.933,179.765Z" style="fill:rgb(72,71,71);fill-rule:nonzero;"/>
        <path d="M83.866,232.846L96.04,226.35L123.546,237.766L113.241,224.229L130.75,240.757L129.488,243.86L127.554,246.605L83.866,232.846Z" style="fill:rgb(23,22,22);fill-rule:nonzero;"/>
        <path d="M97.648,227.141L84.401,206.312L89.255,216.807L94.644,227.081L95.755,226.533L97.648,227.141Z" style="fill:rgb(25,23,23);fill-rule:nonzero;"/>
        <path d="M62.473,173.55L62.591,140.616L51.397,175.533L62.473,173.55Z" style="fill:rgb(80,76,76);fill-rule:nonzero;"/>
        <path d="M62.473,173.55L62.591,140.616L51.397,175.533L62.473,173.55Z" style="fill:rgb(80,76,76);fill-rule:nonzero;"/>
        <path d="M49.353,181.834L64.542,180.537L67.53,180.002L84.754,193.523L69.543,186.284L82.403,201.06L75.046,204.75L49.353,181.834Z" style="fill:rgb(26,23,23);fill-rule:nonzero;"/>
        <path d="M49.353,181.834L64.542,180.537L67.53,180.002L84.754,193.523L69.543,186.284L82.403,201.06L75.046,204.75L49.353,181.834Z" style="fill:rgb(26,23,23);fill-rule:nonzero;"/>
        <path d="M228.091,177.858L244.069,147.277L211.667,105.641L208.404,139.804L214.359,155.943L198.258,196.105L171.478,214.283C178.399,222.124 192.514,237.279 193.608,235.172C194.702,233.064 202.912,226.655 206.88,223.714L229.587,206.744L228.091,177.858Z" style="fill:rgb(48,45,45);fill-rule:nonzero;"/>
        <path d="M228.091,177.858L244.069,147.277L211.667,105.641L208.404,139.804L214.359,155.943L198.258,196.105L171.478,214.283C178.399,222.124 192.514,237.279 193.608,235.172C194.702,233.064 202.912,226.655 206.88,223.714L229.587,206.744L228.091,177.858Z" style="fill:rgb(48,45,45);fill-rule:nonzero;"/>
        <path d="M228.091,177.858L244.069,147.277L211.667,105.641L208.404,139.804L214.359,155.943L198.258,196.105L171.478,214.283C178.399,222.124 192.514,237.279 193.608,235.172C194.702,233.064 202.912,226.655 206.88,223.714L229.587,206.744L228.091,177.858Z" style="fill:rgb(48,45,45);fill-rule:nonzero;"/>
        <path d="M228.091,177.858L244.069,147.277L211.667,105.641L208.404,139.804L214.359,155.943L198.258,196.105L171.478,214.283C178.399,222.124 192.514,237.279 193.608,235.172C194.702,233.064 202.912,226.655 206.88,223.714L229.587,206.744L228.091,177.858Z" style="fill:rgb(48,45,45);fill-rule:nonzero;"/>
        <path d="M227.173,151.07L211.794,105.804L244.037,147.098L227.173,151.07Z" style="fill:rgb(72,71,71);fill-rule:nonzero;"/>
        <path d="M227.173,151.07L211.794,105.804L244.037,147.098L227.173,151.07Z" style="fill:rgb(72,71,71);fill-rule:nonzero;"/>
        <path d="M229.956,207.223L216.134,205.382L194.012,225.686L199.068,209.398L188.218,231.004L190.5,233.473L193.293,235.371L229.956,207.223Z" style="fill:rgb(23,22,22);fill-rule:nonzero;"/>
        <path d="M214.538,206.747L219.64,182.094L218.776,193.876L217.332,205.635L216.099,205.499L214.538,206.747Z" style="fill:rgb(25,23,23);fill-rule:nonzero;"/>
        <path d="M228.929,144.28L217.389,113.435L240.005,142.297L228.929,144.28Z" style="fill:rgb(80,76,76);fill-rule:nonzero;"/>
        <path d="M228.929,144.28L217.389,113.435L240.005,142.297L228.929,144.28Z" style="fill:rgb(80,76,76);fill-rule:nonzero;"/>
        <path d="M244.108,147.497L229.414,151.552L226.426,152.087L214.964,170.745L226.718,158.677L219.785,176.998L227.966,177.905L244.108,147.497Z" style="fill:rgb(26,23,23);fill-rule:nonzero;"/>
        <path d="M244.108,147.497L229.414,151.552L226.426,152.087L214.964,170.745L226.718,158.677L219.785,176.998L227.966,177.905L244.108,147.497Z" style="fill:rgb(26,23,23);fill-rule:nonzero;"/>
        <path d="M148.456,179.736L106.723,251.246L137.436,265.339L159.568,241.782L190.28,255.876L211.225,232.532L148.456,179.736Z" style="fill:rgb(71,67,67);fill-rule:nonzero;"/>
        <path d="M131.447,209.22L158.361,225.442L174.99,201.422" style="fill:none;fill-rule:nonzero;stroke:black;stroke-width:1.49px;"/>
        <path d="M158.708,231.315L137.179,264.846L160.077,242.375L189.943,255.397L158.708,231.315Z" style="fill:rgb(28,26,26);fill-rule:nonzero;"/>
        <path d="M139.181,261.25C132.326,261.327 119.067,247.107 113.295,239.988L106.723,251.236L137.553,265.858L139.181,261.25Z" style="fill:rgb(119,109,109);fill-rule:nonzero;stroke:black;stroke-opacity:0.2;stroke-width:1.49px;"/>
        <path d="M185.375,253.517C191.831,251.21 199.331,233.273 202.274,224.592L212.34,232.861L188.501,257.273L185.375,253.517Z" style="fill:rgb(119,109,109);fill-rule:nonzero;stroke:black;stroke-opacity:0.2;stroke-width:1.49px;"/>
        <path d="M158.667,231.322L148.049,180.888L149.073,180.704L158.667,231.322Z" style="fill:rgb(154,152,152);fill-rule:nonzero;stroke:black;stroke-opacity:0.2;stroke-width:1.49px;"/>
        <path d="M123.007,250.657L158.833,231.292L196.773,237.447L172.977,241.708L158.833,231.292L149.182,245.97L123.007,250.657Z" style="fill:rgb(35,32,32);fill-rule:nonzero;"/>
        <path d="M158.833,231.292L123.007,250.657L149.182,245.97L158.833,231.292ZM158.833,231.292L196.773,237.447L172.977,241.708L158.833,231.292Z" style="fill:none;fill-rule:nonzero;stroke:black;stroke-opacity:0.2;stroke-width:1.49px;"/>
        <path d="M159.652,242.476L137.416,266.17L139.168,275.953L168.077,289.526L189.883,266.871L188.047,256.622L159.652,242.476Z" style="fill:rgb(23,22,22);fill-rule:nonzero;stroke:black;stroke-opacity:0.2;stroke-width:1.49px;"/>
        <path d="M160.671,245.531L142.568,265.419L144.047,273.68L167.786,285.262L185.541,266.249L183.991,257.595L160.671,245.531Z" style="fill:rgb(28,26,26);fill-rule:nonzero;stroke:rgb(152,37,183);stroke-width:1.49px;"/>
        <path d="M160.87,246.574L167.798,285.26" style="fill:none;fill-rule:nonzero;stroke:rgb(152,37,183);stroke-width:1.49px;"/>
        <path d="M160.514,265.252L163.452,261.218L168.198,263.876L164.669,268.015L160.514,265.252Z" style="fill:rgb(152,37,183);fill-rule:nonzero;stroke:rgb(152,37,183);stroke-width:1.49px;"/>
        <path d="M288.937,846.556L185.999,271.749L168.106,285.495L146.555,278.812L249.492,853.62L277.03,893.732L288.937,846.556Z" style="fill:rgb(28,26,26);fill-rule:nonzero;stroke:rgb(152,37,183);stroke-width:1.49px;"/>
        <path d="M268.704,881.194L161.695,283.654L146.903,279.289L249.746,853.565L268.704,881.194Z" style="fill:rgb(51,50,50);fill-rule:nonzero;"/>
        <path d="M106.636,151.207L86.893,96.55L122.748,118.371L135.134,98.891L135.131,98.878L135.138,98.883L135.186,98.809L135.208,98.936L153.585,112.907L179.638,80L180.09,138.112L204.393,127.038L188.946,170.486L198.258,183.971L157.914,226.1L157.896,225.996L105.513,200.521L109.565,184.643L80,149.256L106.636,151.207Z" style="fill:rgb(26,23,23);"/>
    </g>
</svg>
